<?xml version="1.0" encoding="UTF-8"?>
<svg width="980px" height="400px" viewBox="0 0 980 400" version="1.1" xmlns="http://www.w3.org/2000/svg" xmlns:xlink="http://www.w3.org/1999/xlink">
    <!-- Generator: Sketch 43.2 (39069) - http://www.bohemiancoding.com/sketch -->
    <title>Slice 1</title>
    <desc>Created with Sketch.</desc>
    <defs>
        <polygon id="path-1" points="127.299363 0 254.598726 73.4963215 254.598726 220.488964 127.299363 293.985286 6.03961325e-14 220.488964 -2.13162821e-14 73.4963215"></polygon>
    </defs>
    <g id="Page-1" stroke="none" stroke-width="1" fill="none" fill-rule="evenodd">
        <g id="github-banner" transform="translate(-16.000000, -21.000000)">
            <g id="Group" transform="translate(379.000000, 74.000000)">
                <mask id="mask-2" fill="white">
                    <use xlink:href="#path-1"></use>
                </mask>
                <use id="Mask" stroke="#2B303A" xlink:href="#path-1"></use>
                <path d="M176.68775,20.7931201 L123.326577,121.563699 C89.6669036,171.25108 48.8680885,101.623981 12.8411082,168.265892 L-41.298,272.51671 L82.7659819,272.427377 L129.747338,179.008104 C164.583221,108.536069 205.776587,181.390299 239.123597,131.609863 L296.702,21.6641102 L176.68775,20.7931201 Z M179.628272,25.2895135 L195.086486,25.4905113 L190.485871,34.2190234 L175.027658,34.0143035 L179.628272,25.2895135 Z M170.374933,42.4934295 L185.833146,42.6944273 L181.232532,51.4229394 L165.774318,51.2182195 L170.374933,42.4934295 Z M161.050872,59.4070155 L176.509085,59.6080132 L171.908471,68.3365253 L156.450257,68.1318054 L161.050872,59.4070155 Z M48.3358168,153.057064 C45.2203521,153.485115 42.0676656,156.239528 41.2599526,158.029897 L25.1540797,157.586958 C30.6033512,150.339873 39.9646339,152.941677 48.3358168,153.057064 Z M11.3224588,181.725295 L26.7806723,181.926293 L22.1800579,190.654805 L6.72184429,190.450085 L11.3224588,181.725295 Z M15.978906,173.246169 L20.5795205,164.521379 L36.037734,164.722377 L31.4371195,173.450889 L15.978906,173.246169 Z M2.00212003,198.638881 L17.4603336,198.839879 L12.8597191,207.568391 L-2.59849446,207.363671 L2.00212003,198.638881 Z M-16.6720571,265.850285 L-32.1302706,265.645565 L-27.5296561,256.920775 L-12.0714426,257.121773 L-16.6720571,265.850285 Z M-6.5737827,246.524727 L-22.0319963,246.320007 L-17.4313818,237.595217 L-1.97316821,237.796215 L-6.5737827,246.524727 Z M2.50461434,226.879061 L-12.9535992,226.674341 L-8.35298475,217.949551 L7.10522883,218.150548 L2.50461434,226.879061 Z M78.4296421,267.145604 L62.9714286,266.940884 L67.5720431,258.216094 L83.0302566,258.417092 L78.4296421,267.145604 Z M88.5279165,247.820045 L73.0697029,247.615325 L77.6703174,238.890535 L93.128531,239.091533 L88.5279165,247.820045 Z M97.6063135,228.178101 L82.1481,227.973382 L86.7487145,219.248592 L102.206928,219.449589 L97.6063135,228.178101 Z M107.961418,208.863709 L92.5032048,208.658989 L97.1038192,199.9342 L112.562033,200.135197 L107.961418,208.863709 Z M117.281757,191.950123 L101.823543,191.745404 L106.424158,183.020614 L121.882372,183.221611 L117.281757,191.950123 Z M126.538819,174.746207 L111.080605,174.541488 L115.68122,165.816698 L131.139433,166.017695 L126.538819,174.746207 Z M135.375274,159.868654 L119.269401,159.425714 C124.945726,152.803956 133.246187,155.52487 141.61737,155.636535 C138.501905,156.068308 136.186709,158.074563 135.375274,159.868654 Z M114.19607,138.931391 C117.311535,138.503341 119.630453,136.493363 120.438166,134.699273 L136.544039,135.142212 C130.867714,141.76397 122.56353,139.043057 114.19607,138.931391 Z M142.380417,126.61842 L126.922203,126.4137 L131.522818,117.68891 L146.981031,117.889908 L142.380417,126.61842 Z M152.478691,107.292861 L137.020478,107.088141 L141.621092,98.3633515 L157.079306,98.5643492 L152.478691,107.292861 Z M146.095153,87.4461975 L150.695767,78.7214076 L166.153981,78.9224053 L161.553366,87.6509174 L146.095153,87.4461975 Z M207.183571,140.803648 C210.299035,140.375597 213.451722,137.621184 214.259435,135.830815 L230.365308,136.273755 C224.916036,143.520839 215.551031,140.919035 207.183571,140.803648 Z M234.723981,129.882772 L219.265767,129.678052 L223.866382,120.953262 L239.324595,121.15426 L234.723981,129.882772 Z M244.822255,110.557213 L229.364041,110.352493 L233.964656,101.627703 L249.42287,101.828701 L244.822255,110.557213 Z M253.89693,90.9152693 L238.438716,90.7105494 L243.039331,81.9857594 L258.497544,82.1867571 L253.89693,90.9152693 Z M264.255757,71.6008772 L248.797543,71.3961573 L253.398158,62.6713674 L268.856371,62.8723651 L264.255757,71.6008772 Z M273.576096,54.6872912 L258.117882,54.4825713 L262.718497,45.7577814 L278.17671,45.9587791 L273.576096,54.6872912 Z M267.371222,37.2786553 L271.971836,28.5538654 L287.43005,28.7548631 L282.829435,37.4833752 L267.371222,37.2786553 Z" id="Shape" fill="#2B303A" fill-rule="nonzero" mask="url(#mask-2)"></path>
            </g>
        </g>
    </g>
</svg>